<svg width="3281" height="1563" viewBox="0 0 3281 1563" fill="none" xmlns="http://www.w3.org/2000/svg">
<rect width="3281" height="1563" fill="transparent"/>
<rect x="94" y="454" width="303.944" height="303.944" fill="#5CE1E6"/>
<rect x="445.056" y="454" width="303.944" height="303.944" fill="#38B6FF"/>
<rect x="94" y="805.056" width="303.944" height="303.944" fill="#4541FF"/>
<rect x="445.056" y="805.056" width="303.944" height="303.944" fill="#004AAD"/>
<path d="M914 641.058V748.617H923.959H933.918V738.558V728.499L940.392 734.475C947.463 741.147 955.729 746.326 963.298 749.015C969.871 751.306 986.502 752.202 993.972 750.608C1008.11 747.72 1023.05 736.964 1032.02 723.32C1052.13 692.547 1044.17 651.017 1014.29 630.004C1004.43 623.132 994.669 620.144 981.722 620.144C964.891 620.144 952.94 625.024 940.192 637.373L933.918 643.349V588.474V533.5H923.959H914V641.058ZM991.98 641.955C1017.67 650.818 1030.22 680.496 1018.67 705.295C1015.38 712.365 1007.12 721.727 1000.94 725.412C990.685 731.387 978.635 733.08 967.281 730.093C959.314 728.101 953.438 724.516 947.064 717.943C923.76 693.642 933.52 652.81 965.289 641.855C972.261 639.465 984.809 639.465 991.98 641.955Z" fill="black"/>
<path d="M1149.03 641.058V748.616H1158.99H1168.95V641.058V533.5H1158.99H1149.03V641.058Z" fill="black"/>
<path d="M1214.76 641.058V748.616H1225.22H1235.68V641.058V533.5H1225.22H1214.76V641.058Z" fill="black"/>
<path d="M2264.45 641.058V748.616H2274.41H2284.37V641.058V533.5H2274.41H2264.45V641.058Z" fill="black"/>
<path d="M2533.35 597.736V622.036L2517.71 622.335L2501.98 622.634L2501.68 631.796L2501.38 641.058H2517.41H2533.35V694.837V748.616H2543.31H2553.27V694.837V641.058H2568.7H2584.14V631.597V622.136H2568.7H2553.27V597.736V573.336H2543.31H2533.35V597.736Z" fill="black"/>
<path d="M1085.59 577.32C1079.52 581.005 1077.63 588.773 1081.31 594.748C1083.9 598.931 1088.08 600.624 1094.06 599.927C1097.74 599.529 1099.24 598.732 1101.43 596.143C1110.29 585.486 1097.35 570.149 1085.59 577.32Z" fill="black"/>
<path d="M1286.77 576.922C1281.19 579.71 1278.6 585.984 1280.49 591.86C1283.38 600.325 1294.04 603.214 1300.81 597.139C1304.89 593.553 1306.09 589.072 1304.4 583.893C1302.21 577.121 1293.24 573.635 1286.77 576.922Z" fill="black"/>
<path d="M1831.83 576.822C1823.76 581.104 1822.47 591.86 1829.34 597.636C1831.73 599.628 1833.52 600.226 1837.31 600.226C1846.57 600.226 1852.35 591.561 1848.86 583.096C1846.17 576.623 1837.81 573.535 1831.83 576.822Z" fill="black"/>
<path d="M2335.46 577.32C2329.39 581.005 2327.49 588.773 2331.18 594.748C2333.77 598.931 2337.95 600.624 2343.93 599.927C2347.61 599.529 2349.11 598.732 2351.3 596.143C2360.16 585.486 2347.21 570.149 2335.46 577.32Z" fill="black"/>
<path d="M1393.23 620.642C1371.12 625.423 1351.5 643.15 1344.33 664.761C1341.54 672.927 1340.65 687.368 1342.14 696.331C1345.63 716.449 1358.57 733.977 1377.1 743.537C1386.86 748.617 1395.02 750.608 1406.98 750.608C1426.4 750.608 1439.34 745.131 1453.39 731.188C1460.95 723.719 1463.15 720.731 1466.53 713.76C1471.31 703.701 1472.9 696.431 1472.9 684.978C1472.9 673.824 1470.61 664.462 1465.73 655.101C1451.89 628.51 1422.11 614.368 1393.23 620.642ZM1422.31 642.054C1429.18 644.345 1438.15 650.619 1442.93 656.495C1444.62 658.686 1447.51 663.367 1449.2 666.952C1453.19 675.417 1454.08 689.36 1451.19 698.522C1447.41 710.672 1435.76 723.121 1424.11 727.702C1413.05 731.985 1398.41 731.387 1387.46 726.308C1379.99 722.823 1369.73 712.863 1366.04 705.295C1354.99 682.787 1364.45 655.3 1387.16 644.146C1398.31 638.668 1410.16 637.971 1422.31 642.054Z" fill="black"/>
<path d="M2029.52 620.642C2006.11 626.02 1985.5 646.237 1980.12 669.243C1978.03 678.206 1978.23 692.945 1980.62 702.207C1985.2 720.233 1997.45 735.072 2014.98 743.737C2024.84 748.617 2034 750.608 2046.65 750.608C2063.58 750.608 2077.12 744.733 2090.27 731.686C2096.74 725.312 2104.11 715.154 2104.11 712.465C2104.11 712.067 2099.13 711.768 2092.96 711.768H2081.8L2076.72 716.648C2065.97 727.304 2055.01 731.387 2040.17 730.391C2033.6 729.993 2030.81 729.196 2024.74 726.209C2012.39 720.134 2002.13 707.884 1999.94 696.829L1999.34 693.842H2054.72H2110.09V684.58C2110.09 666.753 2104.21 652.412 2091.76 639.764C2078.72 626.418 2064.67 620.144 2046.35 619.547C2039.58 619.348 2033.7 619.746 2029.52 620.642ZM2053.42 640.461C2069.16 643.847 2081.21 654.503 2086.98 670.139L2089.17 675.915H2044.26H1999.44L2000.14 673.625C2002.53 665.757 2009.1 655.3 2014.98 650.221C2021.75 644.146 2034.2 639.266 2042.86 639.166C2045.05 639.166 2049.84 639.764 2053.42 640.461Z" fill="black"/>
<path d="M2890.28 620.642C2867.48 625.622 2847.76 643.349 2840.79 665.458C2838.99 671.234 2838.6 674.621 2838.69 685.376C2838.69 696.531 2839.09 699.419 2841.28 706.091C2846.46 721.428 2858.81 735.67 2873.85 743.537C2883.71 748.617 2891.88 750.608 2903.83 750.608C2922.85 750.608 2936.29 745.031 2949.74 731.686C2963.78 717.743 2969.56 704.398 2969.56 685.675C2969.56 674.123 2968.26 667.649 2964.48 659.184C2951.43 630.203 2920.36 614.069 2890.28 620.642ZM2919.46 642.253C2930.82 646.436 2940.68 655.499 2945.85 666.554C2950.14 675.716 2950.83 688.364 2947.75 698.622C2945.26 706.988 2938.68 716.15 2931.31 721.727C2917.27 732.284 2897.65 733.578 2881.72 725.014C2875.15 721.428 2865.48 711.071 2862.4 704.299C2856.82 692.248 2856.92 676.812 2862.6 665.159C2868.27 653.408 2882.81 642.353 2895.56 640.062C2902.43 638.768 2912.89 639.764 2919.46 642.253Z" fill="black"/>
<path d="M3054.71 620.542C3045.35 622.833 3037.28 628.609 3030.11 638.071L3027.42 641.556L3027.32 631.796V622.136H3017.36H3007.4V685.376V748.616H3017.26H3027.12L3027.52 712.465C3028.02 672.529 3028.02 672.031 3034.99 658.686C3038.87 651.316 3043.95 646.337 3051.72 642.253C3055.9 640.062 3057.99 639.664 3064.67 639.664C3074.03 639.564 3079.41 641.955 3083.69 648.129C3089.47 656.495 3089.47 656.694 3089.86 704.498L3090.16 748.616H3100.12H3109.98V706.29V663.865L3112.57 658.885C3115.86 652.412 3122.33 645.839 3129.1 642.453C3133.48 640.162 3135.68 639.664 3142.45 639.664C3149.72 639.564 3150.91 639.863 3155.39 642.552C3159.28 645.042 3160.97 646.934 3163.76 652.412L3167.25 659.283L3167.54 703.9L3167.84 748.616H3177.8H3187.66V705.494C3187.66 657.391 3187.26 653.706 3181.19 641.357C3175.21 629.207 3164.96 621.937 3150.71 619.945C3141.95 618.65 3131.39 619.845 3125.62 622.734C3119.74 625.721 3112.37 631.995 3108.39 637.373L3104.5 642.652L3100.92 637.075C3091.66 622.634 3073.03 616.061 3054.71 620.542Z" fill="black"/>
<path d="M1556.86 622.136C1549.69 624.526 1539.93 631.697 1534.75 638.469L1530.97 643.349L1530.67 632.693L1530.37 622.036L1520.71 622.335L1511.05 622.634L1510.75 685.575L1510.55 748.616H1520.51H1530.47V719.436C1530.57 679.301 1532.06 669.74 1540.53 656.993C1547.5 646.735 1556.76 641.357 1569.81 640.361C1583.15 639.365 1590.62 643.747 1595.3 655.499C1597.59 661.375 1597.69 661.873 1597.99 704.996L1598.29 748.616H1608.25H1618.11V706.888C1618.11 660.578 1617.51 654.403 1612.13 643.448C1608.15 635.282 1598.39 626.12 1590.52 623.132C1582.16 619.845 1565.23 619.347 1556.86 622.136Z" fill="black"/>
<path d="M1697.08 621.638C1677.76 626.916 1661.23 643.349 1654.26 664.462C1651.97 671.334 1651.57 674.122 1651.57 685.376C1651.47 697.128 1651.77 699.12 1654.36 707.187C1661.43 728.698 1679.95 746.426 1699.57 750.509C1706.94 752.003 1718.99 751.803 1726.56 750.11C1735.92 747.919 1744.09 743.139 1752.85 734.773L1760.52 727.404V738.06V748.617H1770.48H1780.44L1780.24 685.575L1779.94 622.634L1770.28 622.335L1760.52 622.036V633.091V644.146L1754.35 637.871C1742 625.423 1729.45 620.144 1712.32 620.244C1706.84 620.244 1699.87 620.941 1697.08 621.638ZM1728.85 641.955C1754.45 650.719 1767.3 681.393 1755.54 705.494C1738.61 739.853 1692.6 740.35 1675.87 706.29C1663.52 681.293 1675.97 650.918 1702.26 641.855C1709.13 639.465 1721.78 639.465 1728.85 641.955Z" fill="black"/>
<path d="M1937.1 621.538C1928.83 624.128 1921.96 630.8 1917.28 640.56L1914.99 645.44L1914.69 634.087L1914.39 622.634L1904.73 622.335L1894.97 622.036V685.376V748.616H1904.93H1914.89V713.76C1914.89 675.716 1915.29 672.23 1920.37 661.474C1928.33 644.843 1941.78 638.369 1954.13 645.341C1956.82 646.835 1959.11 648.03 1959.31 648.03C1959.51 648.03 1959.7 642.253 1959.7 635.282V622.435L1955.82 621.339C1950.84 619.845 1942.38 619.945 1937.1 621.538Z" fill="black"/>
<path d="M2166.16 621.638C2148.33 626.618 2137.87 638.17 2136.28 654.304C2135.38 664.263 2137.77 670.936 2144.74 677.907C2151.52 684.679 2159.38 688.165 2179 693.344C2194.64 697.526 2203.5 701.61 2207.59 706.49C2211.07 710.672 2211.77 714.556 2210.47 721.03C2208.48 730.79 2199.72 735.67 2184.28 735.67C2167.85 735.67 2159.19 730.292 2155 717.445L2153.71 713.76H2143.25H2132.69L2133.39 717.843C2135.28 729.495 2144.94 742.442 2155.3 747.222C2179.9 758.476 2215.85 751.604 2227.21 733.479C2232.98 724.316 2234.08 709.278 2229.6 699.02C2225.11 688.563 2214.76 682.289 2192.75 676.513C2163.87 669.043 2157.89 664.96 2157.89 652.81C2157.89 648.229 2158.39 646.635 2160.38 644.245C2166.56 636.876 2182.69 634.386 2193.54 639.067C2199.32 641.556 2202.91 645.241 2204.8 650.52L2206.09 654.005H2216.95H2227.8L2227.21 651.515C2223.42 636.577 2216.35 628.51 2202.21 623.132C2194.44 620.244 2174.22 619.348 2166.16 621.638Z" fill="black"/>
<path d="M2419.12 621.638C2403.48 626.02 2393.82 634.884 2390.44 647.731C2387.15 660.379 2389.34 669.74 2397.81 678.006C2404.58 684.679 2411.95 687.966 2433.26 693.841C2449.59 698.323 2456.56 701.61 2460.95 707.087C2463.44 710.075 2463.83 711.469 2463.73 716.249C2463.63 724.117 2460.65 729.296 2454.27 732.582C2447.7 735.968 2432.96 736.765 2424.2 734.176C2416.93 732.084 2411.05 726.408 2408.36 718.839L2406.47 713.76H2395.81H2385.16L2386.65 719.436C2392.33 741.247 2409.06 752.6 2435.75 752.6C2451.39 752.6 2466.22 747.72 2474.89 739.753C2486.74 728.798 2488.93 706.987 2479.57 694.041C2473.69 685.874 2465.23 681.691 2441.82 675.517C2425.59 671.135 2417.72 667.749 2413.84 663.267C2411.15 660.279 2410.85 659.184 2410.85 653.607C2410.85 645.938 2412.64 643.15 2420.11 639.365C2424.4 637.174 2426.59 636.776 2433.26 636.776C2446.11 636.776 2454.57 641.457 2457.76 650.519L2459.05 654.005H2469.91H2480.76L2480.17 651.515C2476.38 636.577 2469.31 628.51 2455.17 623.132C2447.4 620.244 2427.18 619.347 2419.12 621.638Z" fill="black"/>
<path d="M2735.22 621.638C2724.46 623.929 2715 629.506 2705.54 638.967C2691.6 653.009 2685.72 666.852 2685.72 685.675C2685.82 704.199 2692.1 719.237 2705.54 732.782C2719.58 746.923 2733.23 752.202 2752.95 751.405C2762.11 750.907 2765.2 750.31 2771.87 747.72C2789.5 740.948 2801.05 729.694 2809.42 711.469L2811.21 707.784H2799.85H2788.4L2786.21 710.971C2777.15 724.217 2762.71 731.487 2747.47 730.391C2734.42 729.495 2723.67 723.818 2715.7 713.76C2710.02 706.589 2707.43 699.12 2706.84 688.165C2706.04 672.031 2711.62 659.781 2724.07 650.32C2732.43 643.946 2739.2 641.755 2750.46 641.656C2758.72 641.556 2760.82 641.955 2766.69 644.444C2774.96 647.93 2783.32 655.3 2787.51 662.67L2790.49 667.948H2801.45C2814.1 667.948 2813.6 668.844 2807.72 656.495C2796.97 634.187 2774.36 619.945 2749.96 620.244C2745.08 620.343 2738.41 620.941 2735.22 621.638Z" fill="black"/>
<path d="M1082.31 685.376V748.616H1092.27H1102.23L1102.03 685.575L1101.73 622.634L1092.07 622.335L1082.31 622.036V685.376Z" fill="black"/>
<path d="M1283.18 622.833C1282.79 623.132 1282.49 651.615 1282.49 686.073V748.616H1292.45H1302.4V685.376V622.136H1293.14C1287.96 622.136 1283.48 622.435 1283.18 622.833Z" fill="black"/>
<path d="M1827.95 622.833C1827.55 623.132 1827.25 651.615 1827.25 686.073V748.616H1837.21H1847.17V685.376V622.136H1837.91C1832.73 622.136 1828.24 622.435 1827.95 622.833Z" fill="black"/>
<path d="M2332.17 685.376V748.616H2342.13H2352.09L2351.89 685.575L2351.6 622.634L2341.93 622.335L2332.17 622.036V685.376Z" fill="black"/>
<path d="M2622.88 722.026C2612.52 728.997 2612.32 741.645 2622.28 749.015C2624.47 750.608 2626.57 751.106 2631.35 751.106C2636.62 751.106 2638.12 750.708 2641.21 748.318C2645.89 744.732 2647.88 740.848 2647.88 735.371C2647.88 726.806 2640.41 719.735 2631.45 719.735C2627.66 719.735 2625.37 720.333 2622.88 722.026Z" fill="black"/>
<path d="M1854.24 932.86C1843.38 935.15 1837.21 942.321 1837.21 952.579C1837.21 958.953 1839 963.434 1844.28 970.505C1846.57 973.393 1848.16 975.983 1847.96 976.082C1847.86 976.182 1846.07 977.377 1844.18 978.672C1830.64 987.734 1825.46 999.586 1829.44 1012.93C1831.33 1019.11 1838.5 1025.88 1845.08 1027.87C1857.33 1031.45 1874.06 1028.97 1883.72 1021.99C1890.89 1016.72 1890.59 1016.72 1896.86 1022.89L1902.54 1028.47H1909.91H1917.38L1908.12 1019.21C1903.14 1014.13 1898.95 1009.64 1898.95 1009.25C1898.95 1008.85 1900.25 1006.76 1901.84 1004.57C1904.83 1000.38 1909.21 990.423 1910.41 984.846L1911.1 981.659H1905.73H1900.45L1898.26 988.631C1896.07 995.403 1892.08 1002.77 1890.89 1002.27C1890.49 1002.18 1884.51 996.498 1877.44 989.726C1865.89 978.672 1864.79 977.277 1866.49 976.281C1872.26 972.895 1879.04 966.322 1881.03 962.14C1884.71 954.571 1883.72 944.412 1878.74 939.034C1873.76 933.657 1863.3 931.067 1854.24 932.86ZM1868.08 943.616C1876.25 949.691 1873.16 961.542 1861.51 968.812C1857.43 971.302 1856.93 971.003 1851.65 963.335C1845.37 954.272 1846.97 945.109 1855.23 942.122C1859.42 940.528 1864.79 941.225 1868.08 943.616ZM1869.58 996.598C1882.92 1009.94 1883.42 1010.54 1881.53 1012.03C1874.55 1017.41 1861.71 1021.2 1854.34 1019.9C1852.35 1019.6 1848.76 1018.21 1846.47 1016.91C1838.8 1012.53 1836.91 1000.58 1842.79 992.913C1845.08 989.925 1853.74 982.755 1855.13 982.655C1855.43 982.655 1861.91 988.929 1869.58 996.598Z" fill="black"/>
<path d="M2062.28 932.959C2042.07 935.947 2030.61 948.296 2027.33 970.704C2025.24 985.045 2027.73 1000.58 2033.8 1010.84C2037.39 1017.11 2045.45 1023.99 2052.13 1026.57C2058.9 1029.16 2073.44 1030.26 2081.01 1028.57C2101.82 1024.18 2113.37 1007.15 2113.37 981.161C2113.37 963.932 2109.99 953.774 2101.02 944.213C2095.15 938.038 2087.38 934.354 2077.62 932.86C2069.95 931.764 2069.95 931.764 2062.28 932.959ZM2082 943.914C2087.28 945.508 2094.55 951.682 2097.24 956.961C2103.71 969.609 2103.51 994.506 2096.74 1005.96C2090.97 1015.72 2083.1 1019.8 2070.25 1019.8C2059.59 1019.8 2053.02 1017.21 2047.34 1010.84C2040.67 1003.17 2038.98 997.395 2038.98 981.161C2038.88 968.812 2039.18 966.521 2041.27 961.343C2047.64 945.408 2063.88 938.437 2082 943.914Z" fill="black"/>
<path d="M2585.34 932.959C2564.12 935.648 2551.77 951.384 2550.58 977.178C2549.48 1001.68 2557.25 1017.91 2573.98 1025.78C2580.46 1028.87 2581.15 1028.97 2593.6 1028.97C2606.05 1028.97 2606.75 1028.87 2613.22 1025.78C2624.77 1020.3 2633.04 1009.35 2635.83 995.801C2637.42 988.133 2637.22 971.202 2635.43 964.231C2630.75 946.404 2618.9 935.449 2601.57 932.86C2593.8 931.764 2594.1 931.764 2585.34 932.959ZM2608.14 945.01C2619.69 949.89 2625.37 961.841 2625.37 981.161C2625.37 1003.97 2617.2 1016.52 2600.57 1019.4C2588.42 1021.6 2577.57 1018.21 2570.6 1010.24C2564.72 1003.57 2563.03 998.092 2562.53 984.149C2561.53 960.546 2568.4 947.798 2584.44 943.317C2591.11 941.425 2601.67 942.122 2608.14 945.01Z" fill="black"/>
<path d="M1670.99 934.453C1664.72 936.843 1657.45 944.213 1655.95 949.79C1653.46 958.953 1656.55 969.509 1663.42 975.485C1667.7 979.369 1669.9 980.464 1681.85 985.245C1698.48 991.818 1702.06 995.104 1702.06 1004.37C1702.06 1011.04 1699.97 1014.13 1693.2 1017.51C1689.02 1019.6 1687.03 1019.9 1679.36 1019.9C1673.58 1019.8 1667.7 1019.01 1662.63 1017.61C1658.44 1016.52 1654.66 1015.52 1654.36 1015.52C1654.06 1015.52 1653.96 1017.91 1654.16 1020.7L1654.46 1025.98L1660.93 1027.67C1669.4 1029.86 1686.63 1029.96 1693.5 1027.97C1701.27 1025.68 1707.74 1020.8 1710.73 1015.02C1715.71 1005.16 1713.32 991.22 1705.55 985.245C1702.16 982.755 1692.6 978.074 1680.55 973.194C1672.19 969.808 1668.4 966.322 1666.91 960.845C1664.82 953.176 1668.4 946.105 1675.67 943.715C1681.05 941.823 1693.2 942.321 1700.77 944.711C1704.25 945.807 1707.54 946.404 1707.84 946.006C1708.74 945.109 1711.03 937.74 1710.53 937.441C1710.43 937.242 1708.04 936.345 1705.25 935.35C1698.08 932.86 1676.97 932.262 1670.99 934.453Z" fill="black"/>
<path d="M1263.56 981.161V1028.47H1268.64H1273.72L1273.32 988.73L1273.03 948.993L1285.47 968.015C1292.35 978.572 1304 996.399 1311.37 1007.75L1324.81 1028.47H1331.09H1337.26V981.161V933.856H1332.18H1327.2L1327.5 973.094C1327.7 994.706 1327.5 1012.13 1327.2 1011.93C1326.9 1011.74 1315.25 994.108 1301.31 972.696L1276.01 933.856H1269.84H1263.56V981.161Z" fill="black"/>
<path d="M1397.02 981.161V1028.47H1423.41H1449.8V1023.49V1018.51H1428.88H1407.97V1001.08V983.651H1427.39H1446.81V978.672V973.692H1427.39H1407.97V958.753V943.815H1428.88H1449.8V938.835V933.856H1423.41H1397.02V981.161Z" fill="black"/>
<path d="M1492.92 935.051C1493.12 935.748 1498.9 957.06 1505.57 982.456L1517.82 1028.57L1523.4 1028.27L1528.87 1027.97L1536.64 1001.58C1540.92 987.037 1546.2 968.912 1548.39 961.243C1550.49 953.575 1552.28 947.998 1552.28 948.794C1552.28 949.591 1557.56 967.916 1564.03 989.427L1575.68 1028.57L1581.26 1028.27L1586.74 1027.97L1599.29 981.161L1611.83 934.354L1606.36 934.055C1603.37 933.856 1600.78 933.955 1600.48 934.254C1599.78 934.951 1582.45 1003.67 1581.66 1009.05L1580.96 1013.93L1577.67 1001.08C1575.88 993.909 1570.7 975.983 1566.12 961.243L1557.86 934.354L1551.88 934.055L1545.9 933.756L1536.14 966.92C1530.87 985.145 1525.89 1003.17 1525.19 1007.06L1523.89 1014.03L1522.6 1007.55C1521.9 1003.97 1517.62 986.141 1512.94 967.916C1508.36 949.691 1504.57 934.553 1504.57 934.354C1504.57 934.055 1501.89 933.856 1498.5 933.856C1494.02 933.856 1492.52 934.154 1492.92 935.051Z" fill="black"/>
<path d="M2167.85 981.161V1028.47H2173.33H2178.8V1010.14V991.917L2190.26 991.22C2204.9 990.324 2212.86 987.934 2218.94 982.655C2225.41 976.879 2227.9 971.103 2228 961.741C2228.1 955.168 2227.7 953.276 2225.11 948.197C2222.72 943.516 2221.03 941.723 2216.95 939.234C2209.78 934.951 2203.01 933.856 2184.08 933.856H2167.85V981.161ZM2207.29 946.205C2213.76 949.193 2216.65 953.973 2216.65 961.94C2216.65 969.808 2213.46 975.485 2207.29 978.572C2203.2 980.663 2200.71 981.161 2190.66 981.46L2178.8 981.858V963.036C2178.8 952.678 2179.1 943.815 2179.6 943.317C2180 942.918 2185.18 942.819 2191.15 943.217C2199.62 943.616 2203.1 944.313 2207.29 946.205Z" fill="black"/>
<path d="M2281.38 981.161V1028.47H2286.86H2292.34V981.161V933.856H2286.86H2281.38V981.161Z" fill="black"/>
<path d="M2351.1 981.161V1028.47H2356.77H2362.35L2361.75 989.029C2361.46 967.318 2361.36 949.79 2361.65 950.089C2361.95 950.388 2373.51 968.015 2387.35 989.228L2412.55 1027.97L2419.22 1028.27L2425.79 1028.57V981.161V933.856H2420.21H2414.54L2415.04 973.194C2415.23 994.805 2415.33 1012.33 2415.23 1012.23C2415.13 1012.13 2403.58 994.507 2389.64 973.194L2364.24 934.354L2357.67 934.055L2351.1 933.756V981.161Z" fill="black"/>
<path d="M2484.55 981.161V1028.47H2490.03H2495.5V981.161V933.856H2490.03H2484.55V981.161Z" fill="black"/>
<path d="M2691.7 981.161V1028.47H2696.78H2701.86L2701.46 988.73L2701.16 948.993L2713.61 968.015C2720.48 978.572 2732.13 996.399 2739.5 1007.75L2752.95 1028.47H2759.22H2765.4V981.161V933.856H2760.32H2755.34L2755.64 973.094C2755.83 994.706 2755.64 1012.13 2755.34 1011.93C2755.04 1011.74 2743.39 994.108 2729.44 972.696L2704.15 933.856H2697.97H2691.7V981.161Z" fill="black"/>
</svg>
